<mxfile host="app.diagrams.net" agent="Mozilla/5.0 (Windows NT 10.0; Win64; x64) AppleWebKit/537.36 (KHTML, like Gecko) Chrome/140.0.0.0 Safari/537.36" version="28.2.5">
  <diagram name="Página-1" id="xxAkVHqs6dMpyhd3gO2s">
    <mxGraphModel dx="1426" dy="777" grid="1" gridSize="10" guides="1" tooltips="1" connect="1" arrows="1" fold="1" page="1" pageScale="1" pageWidth="827" pageHeight="1169" math="0" shadow="0">
      <root>
        <mxCell id="0" />
        <mxCell id="1" parent="0" />
        <mxCell id="hDrj16FsPjoxDh1ZAu---5" style="edgeStyle=orthogonalEdgeStyle;rounded=0;orthogonalLoop=1;jettySize=auto;html=1;entryX=0.5;entryY=0;entryDx=0;entryDy=0;" edge="1" parent="1" source="hDrj16FsPjoxDh1ZAu---1" target="hDrj16FsPjoxDh1ZAu---2">
          <mxGeometry relative="1" as="geometry" />
        </mxCell>
        <mxCell id="hDrj16FsPjoxDh1ZAu---7" style="edgeStyle=orthogonalEdgeStyle;rounded=0;orthogonalLoop=1;jettySize=auto;html=1;entryX=0.5;entryY=0;entryDx=0;entryDy=0;" edge="1" parent="1" source="hDrj16FsPjoxDh1ZAu---1" target="hDrj16FsPjoxDh1ZAu---4">
          <mxGeometry relative="1" as="geometry" />
        </mxCell>
        <mxCell id="hDrj16FsPjoxDh1ZAu---1" value="0. Logar no aplicativo&lt;div&gt;1/2/3&lt;/div&gt;" style="rounded=0;whiteSpace=wrap;html=1;" vertex="1" parent="1">
          <mxGeometry x="254" y="20" width="120" height="60" as="geometry" />
        </mxCell>
        <mxCell id="hDrj16FsPjoxDh1ZAu---2" value="1. Logar com Conta Google" style="rounded=0;whiteSpace=wrap;html=1;" vertex="1" parent="1">
          <mxGeometry x="14" y="170" width="120" height="60" as="geometry" />
        </mxCell>
        <mxCell id="hDrj16FsPjoxDh1ZAu---3" value="2. Logar com Conta Facebook" style="rounded=0;whiteSpace=wrap;html=1;" vertex="1" parent="1">
          <mxGeometry x="164" y="170" width="120" height="60" as="geometry" />
        </mxCell>
        <mxCell id="hDrj16FsPjoxDh1ZAu---12" style="edgeStyle=orthogonalEdgeStyle;rounded=0;orthogonalLoop=1;jettySize=auto;html=1;entryX=0.5;entryY=0;entryDx=0;entryDy=0;" edge="1" parent="1" source="hDrj16FsPjoxDh1ZAu---4" target="hDrj16FsPjoxDh1ZAu---9">
          <mxGeometry relative="1" as="geometry" />
        </mxCell>
        <mxCell id="hDrj16FsPjoxDh1ZAu---13" style="edgeStyle=orthogonalEdgeStyle;rounded=0;orthogonalLoop=1;jettySize=auto;html=1;" edge="1" parent="1" source="hDrj16FsPjoxDh1ZAu---4" target="hDrj16FsPjoxDh1ZAu---10">
          <mxGeometry relative="1" as="geometry" />
        </mxCell>
        <mxCell id="hDrj16FsPjoxDh1ZAu---14" style="edgeStyle=orthogonalEdgeStyle;rounded=0;orthogonalLoop=1;jettySize=auto;html=1;entryX=0.5;entryY=0;entryDx=0;entryDy=0;" edge="1" parent="1" source="hDrj16FsPjoxDh1ZAu---4" target="hDrj16FsPjoxDh1ZAu---11">
          <mxGeometry relative="1" as="geometry">
            <Array as="points">
              <mxPoint x="594" y="200" />
            </Array>
          </mxGeometry>
        </mxCell>
        <mxCell id="hDrj16FsPjoxDh1ZAu---19" style="edgeStyle=orthogonalEdgeStyle;rounded=0;orthogonalLoop=1;jettySize=auto;html=1;entryX=0.5;entryY=0;entryDx=0;entryDy=0;" edge="1" parent="1" source="hDrj16FsPjoxDh1ZAu---4" target="hDrj16FsPjoxDh1ZAu---15">
          <mxGeometry relative="1" as="geometry" />
        </mxCell>
        <mxCell id="hDrj16FsPjoxDh1ZAu---4" value="3. Logar com credenciais do aplicativo&lt;div&gt;(1/2) &amp;gt; 3 &amp;gt; 4&lt;/div&gt;" style="rounded=0;whiteSpace=wrap;html=1;" vertex="1" parent="1">
          <mxGeometry x="344" y="170" width="120" height="60" as="geometry" />
        </mxCell>
        <mxCell id="hDrj16FsPjoxDh1ZAu---6" style="edgeStyle=orthogonalEdgeStyle;rounded=0;orthogonalLoop=1;jettySize=auto;html=1;entryX=0.408;entryY=0.083;entryDx=0;entryDy=0;entryPerimeter=0;" edge="1" parent="1" source="hDrj16FsPjoxDh1ZAu---1" target="hDrj16FsPjoxDh1ZAu---3">
          <mxGeometry relative="1" as="geometry" />
        </mxCell>
        <mxCell id="hDrj16FsPjoxDh1ZAu---17" style="edgeStyle=orthogonalEdgeStyle;rounded=0;orthogonalLoop=1;jettySize=auto;html=1;entryX=0.5;entryY=0;entryDx=0;entryDy=0;" edge="1" parent="1" source="hDrj16FsPjoxDh1ZAu---9" target="hDrj16FsPjoxDh1ZAu---16">
          <mxGeometry relative="1" as="geometry" />
        </mxCell>
        <mxCell id="hDrj16FsPjoxDh1ZAu---20" style="edgeStyle=orthogonalEdgeStyle;rounded=0;orthogonalLoop=1;jettySize=auto;html=1;entryX=0.5;entryY=0;entryDx=0;entryDy=0;" edge="1" parent="1" source="hDrj16FsPjoxDh1ZAu---9" target="hDrj16FsPjoxDh1ZAu---18">
          <mxGeometry relative="1" as="geometry" />
        </mxCell>
        <mxCell id="hDrj16FsPjoxDh1ZAu---9" value="3.1. Inserir credenciais manualmente" style="rounded=0;whiteSpace=wrap;html=1;" vertex="1" parent="1">
          <mxGeometry x="244" y="280" width="120" height="60" as="geometry" />
        </mxCell>
        <mxCell id="hDrj16FsPjoxDh1ZAu---10" value="3.2. Inserir credenciais salvas" style="rounded=0;whiteSpace=wrap;html=1;" vertex="1" parent="1">
          <mxGeometry x="384" y="280" width="120" height="60" as="geometry" />
        </mxCell>
        <mxCell id="hDrj16FsPjoxDh1ZAu---11" value="3.3. Selecionar a opção logar" style="rounded=0;whiteSpace=wrap;html=1;" vertex="1" parent="1">
          <mxGeometry x="534" y="280" width="120" height="60" as="geometry" />
        </mxCell>
        <mxCell id="hDrj16FsPjoxDh1ZAu---15" value="3.4. Preencher questionário de suitability" style="rounded=0;whiteSpace=wrap;html=1;" vertex="1" parent="1">
          <mxGeometry x="694" y="280" width="120" height="60" as="geometry" />
        </mxCell>
        <mxCell id="hDrj16FsPjoxDh1ZAu---16" value="3.1.1. Digitando credenciais" style="rounded=0;whiteSpace=wrap;html=1;" vertex="1" parent="1">
          <mxGeometry x="164" y="370" width="120" height="60" as="geometry" />
        </mxCell>
        <mxCell id="hDrj16FsPjoxDh1ZAu---18" value="3.1.2. Copiando credenciais" style="rounded=0;whiteSpace=wrap;html=1;" vertex="1" parent="1">
          <mxGeometry x="314" y="370" width="120" height="60" as="geometry" />
        </mxCell>
      </root>
    </mxGraphModel>
  </diagram>
</mxfile>
